{"glyphs":{"\u0000":{"ha":347,"x_min":0,"x_max":0,"o":""},"\r":{"ha":347,"x_min":0,"x_max":0,"o":""}," ":{"ha":347,"x_min":0,"x_max":0,"o":""},"!":{"ha":239,"x_min":69,"x_max":169,"o":"m 69 11 q 81 57 69 42 q 117 72 92 72 q 153 61 135 72 q 169 21 169 49 q 149 -44 169 -12 q 118 -74 131 -74 q 107 -60 111 -74 q 93 -46 103 -46 q 69 11 69 -46 m 108 892 q 115 948 113 939 q 129 957 118 957 q 150 935 144 957 q 154 593 154 917 q 151 310 154 357 q 131 263 147 264 q 115 274 124 263 q 104 557 104 285 q 108 892 104 839 z "},"\"":{"ha":299,"x_min":58,"x_max":228,"o":"m 78 728 q 86 729 81 729 q 118 714 99 729 q 149 628 131 704 q 169 511 168 553 q 154 489 171 490 q 150 488 153 489 q 146 488 147 488 q 115 528 124 488 q 105 592 113 540 q 93 663 97 643 q 79 699 88 688 q 78 728 58 721 m 188 589 q 182 651 182 594 q 203 739 182 739 q 220 706 213 739 q 228 636 228 672 q 219 590 228 599 q 188 589 201 571 z "},"'":{"ha":206,"x_min":69,"x_max":136,"o":"m 110 681 q 124 689 118 689 q 136 615 136 689 q 90 479 136 479 q 73 483 76 479 q 69 500 69 486 q 79 547 69 521 q 94 622 89 576 q 110 681 100 671 z "},",":{"ha":199,"x_min":69,"x_max":129,"o":"m 75 -6 q 69 6 69 0 q 78 18 69 13 q 97 24 86 24 q 122 10 117 24 q 129 -64 126 -3 l 129 -90 q 123 -133 129 -122 q 101 -144 117 -144 q 76 -93 76 -144 q 78 -60 76 -72 q 79 -33 79 -50 q 75 -6 79 -10 z "},".":{"ha":243,"x_min":71,"x_max":174,"o":"m 97 -33 q 128 -26 111 -26 q 168 -40 158 -26 q 174 -57 174 -51 q 150 -93 174 -69 q 117 -114 129 -114 q 106 -112 110 -114 q 76 -99 85 -107 q 71 -82 71 -93 q 97 -33 71 -47 z "},":":{"ha":279,"x_min":71,"x_max":210,"o":"m 129 1 q 164 8 147 8 q 196 -1 181 8 q 210 -31 210 -12 q 208 -60 210 -47 q 188 -125 204 -108 q 157 -143 169 -143 q 115 -131 144 -143 q 71 -72 71 -112 q 72 -53 71 -60 q 88 -22 75 -33 q 129 1 100 -10 m 168 318 q 172 350 168 340 q 183 360 176 360 q 199 347 192 360 q 207 318 207 335 q 206 306 207 310 q 192 288 203 294 q 174 288 182 282 q 168 318 168 292 z "},";":{"ha":325,"x_min":76,"x_max":249,"o":"m 163 -24 q 181 8 171 8 q 194 -4 189 8 q 201 -39 201 -18 q 151 -199 201 -94 q 99 -261 118 -261 q 86 -258 94 -261 q 76 -243 76 -253 q 99 -187 76 -224 q 163 -24 143 -114 m 157 233 q 190 249 167 249 q 235 231 217 249 q 249 200 249 217 q 247 179 249 188 q 190 115 239 115 q 146 182 146 115 q 157 233 146 218 z "},"?":{"ha":492,"x_min":72,"x_max":417,"o":"m 82 -61 q 106 -57 86 -57 q 158 -64 131 -57 q 190 -79 186 -71 l 192 -81 q 192 -85 192 -83 q 181 -131 192 -101 q 161 -167 171 -160 q 128 -175 151 -175 q 82 -161 93 -175 q 72 -110 72 -147 q 82 -61 72 -71 m 215 981 q 233 985 224 985 q 351 918 269 985 q 407 856 399 879 q 417 735 415 832 l 417 710 q 410 588 417 615 q 363 482 400 543 q 283 382 325 421 q 224 303 236 339 q 190 122 211 267 q 158 51 178 51 q 147 54 156 51 q 136 76 136 58 q 139 110 136 79 q 179 329 153 258 q 251 419 197 378 q 310 495 274 438 q 358 589 347 553 q 367 686 367 614 l 367 732 l 364 840 l 322 874 q 260 919 269 914 l 239 931 l 197 886 q 150 826 156 842 q 143 779 147 819 q 132 706 139 739 q 114 672 125 672 q 106 676 110 672 q 94 776 94 688 q 97 819 94 797 q 154 915 103 854 q 215 981 210 979 z "},"A":{"ha":701,"x_min":78,"x_max":625,"o":"m 350 814 q 332 864 339 864 q 315 806 325 864 q 301 744 310 775 q 288 686 292 713 q 268 599 271 608 q 248 506 257 561 q 232 421 239 450 q 214 342 218 371 l 210 311 l 450 311 l 446 342 q 399 561 431 424 q 374 690 390 599 q 350 814 357 782 m 306 989 q 333 1007 318 1007 q 358 988 350 1007 q 407 771 368 963 q 430 660 415 733 q 449 568 444 586 q 496 333 482 418 q 504 306 499 313 q 532 288 510 299 q 596 241 567 269 q 625 199 625 213 q 615 192 625 192 q 569 211 614 192 q 521 231 524 231 q 519 226 519 231 q 544 111 519 199 q 558 42 547 103 q 581 -37 569 -18 q 589 -71 589 -54 q 581 -100 589 -87 q 561 -112 574 -112 q 547 -108 550 -112 q 539 -86 543 -104 q 529 -56 535 -69 q 520 -28 524 -42 q 513 14 517 -15 q 496 104 504 75 q 469 224 469 194 q 456 258 469 253 q 356 263 442 263 l 329 263 l 197 263 l 192 243 l 189 226 q 182 203 185 210 q 175 160 175 185 q 168 118 175 136 q 149 32 164 108 q 129 -54 135 -44 q 117 -100 119 -75 q 106 -129 114 -126 l 104 -131 q 101 -131 103 -131 q 85 -114 92 -131 q 78 -75 78 -97 q 85 -35 78 -50 q 126 171 103 7 q 140 235 138 224 q 140 265 149 257 q 133 283 133 272 q 147 308 133 304 q 168 360 158 311 q 184 433 172 383 q 200 515 196 483 q 219 610 206 561 q 227 641 224 624 q 234 677 231 658 q 239 701 238 696 q 255 769 243 721 q 276 863 267 817 q 292 946 286 908 q 306 989 299 979 z "},"B":{"ha":938,"x_min":78,"x_max":861,"o":"m 311 788 q 329 803 319 803 q 347 771 342 803 q 351 342 351 743 l 351 -53 l 335 -61 q 321 -67 324 -67 q 312 -60 315 -67 q 306 -32 308 -53 q 303 22 304 -11 q 303 113 303 56 q 303 221 303 138 q 304 364 304 304 q 311 788 307 772 m 351 988 q 419 1006 356 992 l 422 1006 q 521 942 454 1006 q 560 897 553 910 q 572 856 568 885 q 575 810 575 831 q 557 657 575 699 q 514 603 540 628 q 485 568 485 574 q 526 558 485 567 q 614 525 571 546 q 664 494 644 511 q 719 438 683 478 q 789 350 772 375 q 822 303 811 317 q 861 131 861 253 l 861 101 q 839 -10 858 26 q 785 -83 815 -56 q 700 -137 754 -111 q 587 -171 643 -164 q 322 -183 531 -178 q 218 -185 279 -185 q 124 -177 147 -185 q 89 -143 101 -169 q 78 -87 78 -121 q 94 -40 78 -44 l 99 -40 q 118 -53 110 -40 q 126 -86 126 -67 q 142 -124 126 -108 q 213 -137 156 -137 q 350 -135 219 -137 q 594 -124 556 -129 q 730 -62 668 -110 q 807 42 792 -14 q 813 114 813 58 l 813 143 q 787 263 810 218 q 676 410 764 307 q 590 481 636 457 q 478 515 544 506 q 382 530 392 526 q 372 547 372 533 q 381 566 372 557 q 419 594 390 575 q 489 651 461 621 q 522 706 517 682 q 526 775 526 725 q 521 864 526 842 q 475 914 517 878 q 408 950 433 950 q 375 936 383 950 q 298 822 361 908 q 229 736 235 736 q 222 753 222 736 q 246 832 222 792 q 302 917 261 857 q 351 988 343 978 z "},"C":{"ha":815,"x_min":75,"x_max":742,"o":"m 289 -82 q 374 -92 322 -82 q 461 -103 425 -103 q 567 -82 525 -101 q 614 -49 610 -62 q 625 -25 617 -33 q 656 28 631 -19 q 685 81 681 75 q 699 110 690 89 q 722 128 707 132 q 735 120 732 126 q 740 92 738 114 q 741 84 740 89 q 742 78 742 79 q 726 39 742 58 q 678 -44 710 21 q 647 -100 656 -89 q 621 -117 638 -111 q 565 -137 586 -126 q 461 -153 532 -153 q 361 -142 406 -153 q 271 -131 317 -131 q 218 -124 231 -131 q 186 -83 206 -117 q 153 -39 167 -53 q 124 15 139 -25 q 110 76 110 54 q 93 135 110 94 q 78 192 81 165 q 75 314 75 218 q 78 435 75 406 q 90 492 81 465 q 110 583 101 521 q 126 669 119 644 q 143 764 138 710 q 152 811 146 797 q 181 854 158 825 q 256 917 219 899 q 294 938 268 924 q 328 954 321 951 q 365 967 347 965 q 439 971 382 969 q 572 953 519 971 q 682 889 682 914 q 676 878 682 881 q 654 878 671 876 q 567 901 622 881 q 442 922 504 922 q 344 904 381 922 q 278 868 338 900 q 221 822 247 853 q 194 769 194 790 q 179 682 194 749 q 163 587 172 654 q 139 483 153 519 q 124 315 124 439 q 136 160 124 189 q 171 32 160 101 q 194 -4 175 8 q 229 -50 215 -19 l 244 -82 l 289 -82 z "},"D":{"ha":678,"x_min":78,"x_max":603,"o":"m 78 985 q 89 1014 78 1014 q 110 990 97 1014 q 148 946 119 971 q 189 921 176 921 q 193 922 192 921 q 206 929 200 929 q 224 911 213 929 q 246 893 236 893 q 328 857 279 893 q 413 771 376 821 q 500 668 442 729 q 546 615 536 631 q 567 560 556 599 q 603 301 603 426 q 601 233 603 258 q 596 106 599 135 q 581 40 593 78 q 558 -13 568 1 q 517 -57 549 -28 q 374 -156 413 -147 q 292 -192 342 -162 q 193 -228 235 -225 l 179 -228 q 126 -207 126 -228 q 131 -196 126 -203 q 181 -179 138 -183 q 278 -143 226 -175 q 351 -110 335 -110 q 482 -21 378 -110 q 516 16 507 1 q 538 71 525 31 q 554 185 554 126 q 553 275 554 236 q 535 495 550 421 q 486 604 519 569 q 360 754 426 665 q 310 806 328 796 q 289 822 289 817 q 268 833 289 825 q 238 842 247 842 q 233 840 233 842 q 238 810 231 838 q 246 758 246 786 q 254 714 246 736 q 268 378 263 697 q 275 -32 274 3 l 278 -126 l 258 -129 q 236 -115 242 -132 q 219 364 228 -76 q 217 467 218 407 q 216 551 217 528 q 214 611 215 574 q 211 663 213 649 q 207 703 210 678 q 200 746 204 728 q 190 788 196 764 q 183 832 183 815 q 144 879 183 849 q 78 985 78 935 z "},"E":{"ha":825,"x_min":75,"x_max":749,"o":"m 93 1004 q 135 1017 107 1015 q 314 1019 164 1019 q 489 1017 450 1019 q 556 1006 528 1015 q 610 979 600 989 q 638 960 621 965 q 684 935 651 956 q 722 906 717 914 l 728 894 q 714 888 728 888 q 696 889 703 888 q 543 953 656 894 l 510 971 l 319 969 l 128 967 q 126 794 128 910 q 125 621 125 679 l 146 560 q 171 438 167 499 q 181 369 175 379 q 322 361 183 361 l 431 361 q 703 368 678 361 q 728 372 717 372 q 749 351 749 372 q 712 323 749 328 q 467 318 675 318 l 201 318 l 201 300 q 218 224 201 285 q 231 152 228 189 q 236 -18 233 115 l 240 -204 l 279 -203 q 386 -180 306 -201 q 488 -156 467 -158 q 528 -133 524 -151 q 551 -118 533 -115 q 567 -124 564 -119 q 572 -144 571 -129 q 574 -168 574 -154 q 563 -194 574 -187 q 517 -203 553 -200 q 410 -225 463 -208 q 250 -254 315 -254 q 197 -240 206 -254 q 188 -36 193 -235 q 171 210 183 157 q 142 325 146 307 q 122 435 132 364 q 97 551 113 507 l 76 613 l 76 800 l 75 989 l 93 1004 z "},"F":{"ha":728,"x_min":75,"x_max":651,"o":"m 553 974 q 607 985 586 985 q 642 975 628 985 q 651 961 651 968 q 608 935 651 944 q 544 919 565 928 q 367 890 468 892 l 290 889 l 285 826 q 242 543 272 682 q 204 364 204 369 q 206 361 204 363 l 206 360 q 215 354 211 354 q 269 375 225 354 q 340 396 311 396 q 351 395 343 396 q 365 394 360 394 l 367 394 l 368 394 q 417 383 414 392 q 418 374 418 379 q 360 346 418 346 q 302 336 338 346 q 246 326 267 326 l 236 326 q 226 327 232 326 q 219 328 221 328 q 194 316 200 328 q 181 256 189 304 q 151 111 164 160 q 125 -61 125 4 q 118 -131 125 -117 q 96 -144 111 -144 q 79 -136 86 -144 q 75 -78 75 -131 q 82 35 75 10 q 96 103 85 44 q 111 172 107 161 q 121 207 115 183 q 131 259 126 231 q 139 297 136 288 q 159 397 146 328 q 181 501 172 467 q 240 861 225 706 q 257 965 250 958 q 272 967 264 972 q 279 949 279 961 q 289 932 279 936 q 308 929 297 929 q 424 943 347 929 q 553 974 500 957 z "},"G":{"ha":864,"x_min":75,"x_max":790,"o":"m 490 936 q 583 963 536 963 q 643 961 618 963 q 722 957 704 960 q 761 940 740 954 q 788 913 788 924 q 775 906 788 906 l 769 906 q 660 913 760 907 q 596 915 601 915 q 531 899 564 915 q 461 868 499 883 q 391 828 425 853 q 343 783 357 804 q 298 701 315 739 q 261 609 281 664 q 226 518 242 554 q 182 410 201 461 q 158 346 171 372 q 134 250 140 304 q 126 60 128 196 q 125 -57 125 7 q 128 -114 125 -101 q 139 -135 131 -126 q 292 -172 176 -172 q 381 -162 342 -172 q 486 -122 421 -151 q 525 -110 517 -110 q 549 -100 533 -110 q 581 -83 558 -93 q 617 -62 604 -74 q 646 -46 636 -46 q 713 43 667 -46 l 742 101 l 742 192 q 733 315 742 279 q 723 342 726 338 q 701 346 719 346 q 619 329 674 346 q 476 301 532 301 q 456 306 460 301 q 446 321 446 314 q 521 357 446 347 q 614 379 561 361 q 704 396 664 396 q 754 383 739 396 q 790 188 789 356 l 790 89 l 750 8 q 710 -62 721 -47 q 679 -86 700 -76 q 642 -112 649 -101 q 628 -124 635 -124 q 581 -140 621 -124 q 517 -169 540 -157 q 478 -182 506 -176 q 414 -204 453 -189 q 296 -222 367 -222 q 85 -151 142 -222 q 75 65 75 -139 q 82 250 75 215 q 89 283 83 257 q 97 321 94 308 q 113 367 104 351 q 128 406 121 383 q 163 499 139 449 q 188 558 188 551 q 204 600 188 564 q 226 658 221 635 q 290 792 236 694 q 364 875 322 847 q 431 911 410 903 q 490 936 467 924 z "},"H":{"ha":838,"x_min":75,"x_max":758,"o":"m 625 975 q 635 981 629 981 q 667 938 646 981 q 681 824 681 906 q 679 706 681 757 q 671 485 676 500 q 668 474 668 476 q 697 453 668 465 q 703 450 700 451 q 708 447 706 449 q 758 408 758 425 q 740 400 758 400 q 717 403 736 400 q 679 408 683 408 q 656 394 663 408 q 639 322 650 379 q 628 278 635 306 q 619 240 622 251 q 613 208 617 229 q 607 168 608 186 q 603 122 606 150 q 600 56 601 93 q 593 -56 597 -31 q 578 -85 589 -81 q 568 -87 569 -87 q 551 -64 556 -87 q 547 24 547 -40 q 575 267 547 163 q 604 397 604 375 q 591 408 604 406 q 529 410 578 410 q 365 392 469 410 q 193 354 261 375 q 156 339 163 344 q 146 310 150 333 q 133 250 142 281 q 126 85 126 222 q 120 -56 126 -26 q 92 -85 114 -85 l 75 -85 l 78 74 q 82 235 81 232 q 92 285 83 239 q 110 385 104 361 q 139 757 129 478 q 150 913 144 876 q 171 949 156 949 l 175 949 q 186 854 186 944 l 186 778 q 165 418 183 472 q 164 405 161 407 q 181 406 167 403 q 249 420 201 411 q 303 431 296 429 q 535 458 444 458 q 605 461 593 458 q 621 475 617 464 q 631 761 631 504 q 625 933 631 906 q 619 960 619 956 q 625 975 619 967 z "},"I":{"ha":461,"x_min":81,"x_max":385,"o":"m 283 947 q 314 960 290 951 q 344 969 338 969 q 365 964 347 972 q 381 938 385 957 q 361 918 379 918 q 313 901 342 918 l 281 885 l 281 810 q 261 672 281 738 q 201 231 206 488 q 200 149 200 196 q 211 63 200 86 q 225 -78 225 28 q 214 -172 225 -165 q 156 -179 203 -179 q 89 -171 97 -179 q 81 -146 81 -162 q 81 -137 81 -139 q 85 -133 82 -135 q 94 -131 88 -131 q 129 -133 96 -131 l 179 -139 l 179 -64 q 164 42 179 11 q 151 128 151 68 q 153 226 151 182 q 178 518 156 385 q 217 708 203 667 q 246 849 246 792 q 244 860 246 858 q 226 865 239 868 q 213 865 221 865 q 201 864 204 864 q 163 879 167 864 q 161 889 161 883 q 196 911 161 906 q 283 947 250 922 z "},"J":{"ha":842,"x_min":76,"x_max":765,"o":"m 626 1015 q 675 1019 643 1019 q 746 1013 728 1019 q 763 990 765 1004 q 752 976 760 979 q 708 972 744 974 q 635 961 654 969 q 554 941 618 953 q 467 929 490 929 q 444 917 444 929 q 456 886 444 908 q 467 836 465 865 q 469 711 469 807 q 467 581 469 611 q 451 511 464 550 q 437 435 439 471 q 435 243 435 400 q 430 33 435 85 q 406 -67 425 -18 q 368 -168 378 -137 q 286 -193 360 -193 q 217 -154 217 -193 q 207 -125 217 -142 q 136 58 151 -19 q 113 147 122 126 q 76 244 76 229 q 80 259 76 256 q 96 263 83 263 q 128 240 115 263 q 182 85 160 178 q 221 -31 199 13 q 244 -87 244 -78 q 256 -103 244 -92 q 265 -124 265 -112 q 283 -142 265 -137 q 300 -144 297 -144 q 322 -129 313 -144 q 353 -64 332 -114 q 380 38 375 -11 q 385 249 385 86 q 387 440 385 404 q 403 521 389 476 q 419 649 419 581 q 419 687 419 658 q 418 735 418 715 q 410 892 415 881 q 403 900 407 896 q 383 911 392 911 q 338 901 381 911 q 278 881 285 886 q 228 864 268 874 q 168 854 189 854 q 163 856 165 854 l 160 856 q 149 864 149 860 q 213 907 149 875 q 444 974 307 954 q 604 1004 593 994 q 626 1015 613 1011 z "},"K":{"ha":676,"x_min":78,"x_max":596,"o":"m 364 792 q 385 831 364 796 q 406 871 406 865 q 431 932 406 879 q 469 985 456 985 q 492 963 492 985 q 479 918 492 947 q 425 797 433 810 q 406 763 406 771 q 393 739 406 753 q 375 704 379 719 q 311 597 368 683 q 276 521 289 565 q 257 474 267 485 q 242 450 251 468 q 233 421 233 432 q 239 410 233 414 q 317 356 275 389 q 372 304 358 324 q 421 244 406 260 q 469 172 443 221 q 500 94 496 122 q 528 14 504 74 q 554 -50 553 -46 q 579 -112 571 -96 q 596 -176 596 -147 l 596 -192 q 592 -205 594 -203 q 578 -206 589 -207 q 561 -198 567 -204 q 549 -172 556 -192 q 532 -133 539 -140 q 511 -78 528 -129 q 479 4 494 -24 q 454 75 463 36 q 424 151 449 104 q 392 199 400 199 q 351 246 386 199 q 296 306 331 275 q 250 338 261 338 l 247 336 q 265 240 243 332 q 283 167 272 211 q 294 117 293 124 q 301 -28 301 89 q 297 -138 301 -111 q 275 -165 292 -165 q 272 -165 274 -165 q 268 -164 269 -164 q 256 -144 258 -162 q 251 -29 254 -125 q 232 171 247 108 q 183 338 200 311 q 171 422 174 354 q 150 550 169 489 q 124 684 135 594 q 103 813 113 774 q 78 954 78 904 q 85 978 78 978 q 106 965 96 978 q 144 847 118 951 q 172 693 169 742 q 192 583 174 651 q 218 515 210 515 q 233 551 221 515 q 265 617 242 585 q 288 651 288 644 q 311 690 288 660 q 336 736 336 722 q 350 768 336 751 q 364 792 364 785 z "},"L":{"ha":529,"x_min":74,"x_max":456,"o":"m 122 925 q 129 938 126 935 q 135 940 132 942 q 143 933 138 939 q 153 895 151 925 q 154 738 154 865 q 131 364 154 461 q 124 117 124 339 q 125 -67 124 -33 q 133 -100 126 -100 l 135 -100 q 138 -99 136 -99 q 259 -78 172 -87 q 403 -68 346 -68 q 447 -74 442 -68 q 450 -99 456 -82 q 438 -113 447 -111 q 374 -118 428 -115 q 150 -153 225 -122 q 103 -165 118 -165 q 82 -157 90 -165 q 74 96 74 -149 q 82 369 74 340 q 108 718 100 436 q 122 925 115 910 z "},"M":{"ha":1063,"x_min":72,"x_max":986,"o":"m 167 1049 q 186 1056 171 1056 q 210 1047 203 1056 q 226 1001 217 1038 q 236 932 235 964 q 246 881 239 894 q 254 846 254 864 q 264 792 254 825 q 296 638 278 742 q 376 308 356 308 q 484 461 392 308 q 576 638 576 614 q 629 732 576 646 q 756 953 708 860 q 775 974 761 965 q 800 982 789 982 q 813 978 808 982 q 822 958 822 968 q 843 899 822 944 q 906 631 882 807 q 936 497 913 582 q 949 238 944 467 q 960 -15 953 1 q 985 -137 982 -69 q 971 -164 986 -162 l 968 -164 q 926 -89 942 -164 q 908 -17 919 -47 q 899 232 899 8 q 892 465 899 454 q 861 613 886 474 q 807 857 825 814 q 786 893 792 893 q 722 792 776 893 q 638 654 664 692 q 625 629 625 635 q 579 527 625 618 q 515 411 533 436 q 454 324 474 353 q 363 221 386 221 q 338 233 346 221 q 324 276 331 244 q 294 410 317 314 q 254 607 272 507 q 219 765 226 754 q 210 817 215 771 q 199 869 207 846 q 183 893 190 893 q 169 864 176 893 q 159 830 168 860 q 146 778 150 800 q 142 740 142 757 q 133 700 142 722 q 121 297 125 681 q 113 -55 118 14 q 93 -124 108 -124 q 81 -107 88 -124 q 74 288 76 -93 q 72 543 72 403 q 81 693 72 675 q 93 743 93 721 q 103 800 93 768 q 135 939 121 864 q 150 1002 139 965 q 167 1049 161 1039 z "},"N":{"ha":682,"x_min":74,"x_max":607,"o":"m 542 901 q 556 1008 542 978 q 581 1039 569 1039 l 586 1039 q 604 1010 603 1038 q 599 976 607 985 q 592 849 592 969 q 561 571 590 668 q 543 488 553 546 q 507 311 525 372 q 488 213 497 281 q 471 119 479 146 q 458 67 458 86 q 443 35 458 58 q 407 -58 428 8 q 378 -133 389 -115 q 351 -150 367 -150 l 346 -150 q 315 -116 326 -149 q 290 1 303 -83 q 276 46 285 38 q 268 64 268 54 q 258 101 268 74 q 246 136 247 128 q 224 225 238 165 q 203 311 210 285 q 186 388 196 335 q 167 472 176 442 l 153 518 l 149 221 q 138 -99 143 -81 q 121 -119 129 -119 q 107 -99 113 -119 q 102 279 104 -85 q 90 671 100 643 q 79 776 85 689 q 74 932 74 864 q 76 992 74 972 q 104 1022 83 1022 q 115 1019 111 1022 q 129 935 125 1011 q 213 501 136 800 q 240 368 225 446 q 261 281 256 290 q 272 235 267 275 q 303 126 276 208 q 333 28 329 44 q 356 -36 346 -36 q 378 7 363 -36 q 397 50 389 40 q 421 117 410 65 q 442 231 432 168 q 458 315 451 293 q 475 388 467 340 q 490 457 483 435 q 500 517 500 486 q 513 589 500 553 q 542 815 542 678 l 542 846 l 542 901 z "},"O":{"ha":938,"x_min":75,"x_max":861,"o":"m 551 878 q 463 886 531 886 l 399 886 l 361 856 q 256 701 313 814 q 229 658 244 676 q 197 592 213 639 q 174 525 178 533 q 124 279 124 414 q 133 160 124 215 q 158 85 143 104 q 172 54 164 79 q 222 -35 181 29 q 274 -100 257 -90 q 351 -110 292 -110 q 427 -99 401 -108 q 479 -65 453 -90 q 562 53 506 -40 q 636 194 618 147 q 658 238 651 233 q 664 253 664 242 q 675 286 664 261 q 765 522 706 353 q 810 772 810 649 l 810 789 l 808 863 l 692 867 q 551 878 571 872 m 374 929 q 451 936 392 936 q 565 926 526 936 q 715 914 608 914 q 782 921 781 914 q 804 929 783 929 q 842 899 821 929 q 858 861 856 878 q 861 782 861 844 q 860 728 861 751 q 855 683 858 706 q 849 649 851 661 q 841 611 847 638 q 832 571 835 585 q 803 476 819 513 q 715 244 783 431 q 699 210 706 217 q 678 165 693 204 q 606 28 663 125 q 526 -93 549 -68 q 464 -142 490 -133 q 354 -151 438 -151 q 243 -144 254 -151 q 181 -64 232 -137 q 126 28 131 10 q 110 71 119 50 q 96 108 96 101 q 86 147 96 121 q 75 276 75 178 q 86 422 75 374 q 131 553 103 493 q 160 642 160 615 q 179 676 160 653 q 213 729 193 694 q 311 883 278 863 q 344 910 329 894 q 374 929 364 926 z "},"P":{"ha":932,"x_min":79,"x_max":857,"o":"m 685 894 q 575 907 660 907 l 531 907 q 388 897 404 907 q 340 886 372 889 l 310 886 l 310 850 q 324 753 310 808 q 367 548 361 589 q 374 403 374 507 l 374 351 q 377 286 374 303 q 393 269 381 269 q 444 286 401 269 q 708 407 674 372 q 724 417 718 417 q 769 464 732 417 l 808 511 l 808 603 q 769 807 807 740 q 685 894 731 874 m 369 947 q 528 957 382 957 q 653 954 625 957 q 703 942 682 951 q 813 826 769 910 q 847 730 839 776 q 857 594 856 683 l 857 496 l 826 454 q 703 342 774 382 q 556 277 668 322 q 403 221 443 232 l 374 213 l 374 101 q 383 -29 374 -8 q 396 -96 393 -49 q 397 -111 396 -103 q 397 -121 397 -119 q 395 -134 397 -129 q 390 -140 393 -139 q 381 -143 388 -142 l 374 -143 q 346 -93 346 -143 q 335 -46 343 -61 q 324 86 325 -31 l 324 199 l 289 199 q 249 211 256 199 q 247 219 247 214 q 276 247 247 242 q 308 253 301 251 l 325 256 l 322 404 q 299 656 319 558 q 268 782 276 754 q 261 839 261 806 q 259 867 261 861 q 247 872 257 872 q 206 858 231 872 q 92 817 122 817 q 79 825 79 817 q 101 854 79 836 q 173 898 128 874 q 229 922 218 922 q 244 936 240 922 q 256 949 247 947 q 274 942 264 951 q 308 935 281 935 q 369 947 353 935 z "},"Q":{"ha":813,"x_min":75,"x_max":738,"o":"m 581 918 q 514 935 535 935 q 383 885 485 935 q 211 718 267 828 q 168 606 190 678 q 146 508 146 535 q 132 439 146 481 q 117 253 117 392 q 124 103 118 140 q 153 11 129 67 q 203 -86 185 -62 q 261 -128 222 -110 q 369 -144 297 -144 q 436 -141 422 -143 q 463 -126 450 -139 l 483 -110 l 471 -83 q 407 -3 457 -54 q 361 57 361 44 q 363 61 361 60 q 371 64 365 64 q 439 30 393 64 q 501 -36 485 -4 q 513 -46 506 -46 q 560 22 525 -46 q 663 332 624 157 q 684 450 681 411 q 690 586 688 489 q 692 667 692 619 q 679 765 692 732 q 654 817 664 807 q 644 844 644 826 q 656 869 644 863 q 663 878 664 876 q 649 889 661 881 q 581 918 633 900 m 344 922 q 377 940 349 922 q 411 957 406 957 q 435 963 418 957 q 471 978 453 969 q 493 988 489 986 q 515 990 501 990 q 582 972 533 990 q 683 893 683 932 q 689 858 683 863 q 718 804 699 851 q 734 753 731 774 q 738 667 738 733 l 738 599 l 738 442 l 708 315 q 660 136 682 200 q 593 -18 639 72 l 546 -111 l 563 -144 q 617 -212 576 -171 q 678 -260 658 -253 q 693 -269 693 -264 q 650 -278 693 -278 q 610 -274 619 -278 q 576 -244 600 -269 q 531 -185 544 -212 q 511 -158 517 -158 q 482 -176 508 -158 q 451 -191 465 -189 q 378 -193 436 -193 q 203 -156 261 -193 q 140 -82 163 -129 q 81 71 88 36 q 75 174 75 103 l 75 253 q 85 463 75 428 q 100 529 96 500 q 140 689 113 610 q 184 773 153 724 q 242 847 215 822 q 301 897 267 871 q 344 922 336 922 z "},"R":{"ha":764,"x_min":79,"x_max":688,"o":"m 421 913 q 363 928 378 928 l 360 928 q 281 897 308 925 q 268 868 268 883 q 274 819 268 867 q 306 660 289 722 q 329 494 329 565 q 343 393 329 426 q 361 361 358 361 q 433 397 371 361 q 500 443 494 433 q 532 465 504 451 q 619 561 585 494 q 638 665 638 596 q 619 792 638 754 q 546 849 600 829 q 493 876 517 858 q 421 913 469 894 m 221 926 q 222 935 221 928 q 226 949 224 942 q 230 963 228 956 q 235 974 232 969 q 240 978 238 978 q 250 968 244 978 q 274 961 254 961 q 326 965 289 961 q 385 969 365 969 q 442 957 410 969 q 513 924 486 942 q 578 888 515 922 q 653 838 642 853 q 688 664 688 789 q 684 593 688 613 q 667 543 681 574 q 618 469 649 504 q 561 424 588 435 q 522 397 536 411 q 453 351 503 381 q 376 303 394 318 q 357 274 357 288 q 378 235 357 258 q 426 200 400 213 q 482 158 456 182 q 556 63 503 138 q 610 -19 610 -11 q 628 -50 610 -24 q 644 -100 644 -74 q 644 -116 644 -112 q 639 -122 643 -119 q 626 -122 635 -125 q 599 -103 613 -121 q 564 -42 586 -86 q 526 19 556 -22 q 492 67 496 60 q 443 123 478 89 q 399 157 408 157 q 376 169 389 157 q 358 175 365 181 q 356 101 356 172 l 356 53 l 356 -1 q 351 -85 356 -64 q 331 -108 346 -106 q 311 -101 315 -111 q 306 74 311 -100 q 297 265 303 233 q 296 283 296 271 q 301 318 296 306 q 306 342 306 333 q 297 372 306 353 q 281 490 285 403 q 254 669 274 593 q 228 797 233 749 q 217 838 222 838 q 153 796 210 838 q 89 756 97 756 q 81 761 85 756 q 79 765 79 763 q 164 867 79 796 q 221 926 215 910 z "},"S":{"ha":797,"x_min":76,"x_max":724,"o":"m 310 944 q 440 990 360 990 q 511 976 479 990 q 560 947 543 963 q 599 899 578 931 q 618 843 618 864 q 611 828 618 832 l 610 828 q 560 872 601 828 q 440 942 494 942 q 408 938 425 942 q 350 910 369 929 l 329 890 l 332 781 l 333 672 l 358 625 q 433 534 382 581 q 515 482 483 488 q 573 463 538 478 q 625 444 608 449 q 714 363 694 426 q 724 250 724 328 q 714 128 724 174 q 671 46 704 92 q 639 -8 639 1 q 590 -62 639 -22 q 518 -110 542 -103 q 487 -124 503 -115 q 456 -135 471 -132 q 406 -137 440 -137 q 294 -115 347 -137 q 249 -97 274 -107 q 215 -83 224 -87 q 188 -67 206 -79 q 149 -33 171 -56 q 106 11 115 -4 q 89 51 96 26 q 78 154 81 82 l 76 217 l 100 236 q 138 254 124 257 q 154 232 154 253 q 142 204 154 217 q 124 140 124 185 q 142 51 124 93 q 249 -38 160 13 q 404 -89 338 -89 q 440 -87 431 -89 q 460 -78 450 -85 q 486 -67 471 -72 q 549 -30 514 -60 q 599 28 585 0 q 636 85 613 53 q 674 225 674 131 q 673 244 674 231 q 672 265 672 258 q 658 363 669 342 q 593 403 646 385 q 538 425 543 421 q 503 435 531 429 q 379 517 453 444 q 301 621 319 575 q 282 761 282 667 l 282 807 l 286 922 l 310 944 z "},"T":{"ha":1068,"x_min":79,"x_max":990,"o":"m 903 936 q 976 963 956 963 q 990 950 990 963 q 938 900 990 935 q 872 865 886 865 q 819 853 863 865 q 640 813 765 835 q 547 794 588 804 l 513 788 l 517 761 q 526 68 526 715 q 525 -71 526 -65 q 501 -87 519 -90 l 482 -85 l 478 339 q 472 772 472 771 q 449 774 469 781 q 388 760 436 769 q 321 743 339 751 q 181 732 290 732 q 92 739 108 732 q 79 760 79 747 q 90 778 79 774 q 194 782 100 782 q 318 796 290 782 q 372 810 346 810 q 442 822 397 810 q 564 848 474 831 q 679 871 654 865 q 756 886 726 882 q 903 936 817 896 z "},"U":{"ha":733,"x_min":75,"x_max":663,"o":"m 83 976 q 99 993 92 993 q 118 882 113 993 q 131 783 124 794 q 152 700 149 754 q 156 424 156 646 q 163 100 156 128 q 208 -46 182 4 q 244 -80 224 -74 q 360 -92 265 -86 q 406 -93 376 -93 q 543 -54 486 -93 q 576 -25 568 -36 q 590 8 585 -14 q 606 47 600 44 q 613 344 613 51 l 613 489 q 617 938 613 928 q 638 949 621 949 q 658 938 654 949 q 663 485 663 928 q 660 99 661 163 q 649 15 658 35 q 635 -28 639 -3 q 615 -63 635 -39 q 586 -87 596 -87 q 558 -106 579 -87 q 507 -131 544 -118 q 382 -139 475 -139 q 194 -122 208 -139 q 121 50 156 -72 q 110 392 113 79 q 107 677 108 635 q 93 751 106 719 q 75 878 76 796 l 75 897 q 83 976 75 957 z "},"V":{"ha":743,"x_min":74,"x_max":664,"o":"m 83 954 q 100 968 88 971 q 117 908 114 965 q 122 636 121 850 q 125 406 124 451 q 136 326 126 361 q 183 110 157 250 q 203 17 189 86 q 214 -10 207 -10 q 234 15 219 -10 q 249 49 249 40 q 267 92 249 56 q 278 124 272 106 q 290 153 285 142 q 303 174 294 165 q 313 196 313 181 q 435 522 313 214 q 463 596 447 553 q 491 669 479 639 q 521 733 503 699 q 556 835 543 778 q 569 864 561 857 q 599 917 575 869 q 640 969 621 969 q 651 967 643 969 q 664 947 664 963 q 636 876 664 924 q 597 788 618 847 q 567 710 576 729 q 471 485 557 692 q 454 436 454 447 q 443 404 454 429 q 391 272 419 350 q 363 182 363 193 q 350 149 363 167 q 317 81 336 132 q 267 -36 299 33 q 235 -121 235 -103 q 206 -158 235 -158 q 171 -87 179 -158 q 154 8 167 -53 q 108 229 119 161 q 92 302 100 268 q 81 349 83 336 q 76 394 78 363 q 74 486 74 425 q 75 654 74 581 q 83 954 78 940 z "},"W":{"ha":867,"x_min":75,"x_max":789,"o":"m 742 951 q 750 976 742 968 q 767 985 758 985 q 789 953 789 985 q 788 940 789 944 q 785 922 786 935 q 781 891 783 910 q 778 860 779 872 q 756 776 771 801 q 742 696 742 754 q 728 606 742 639 q 710 524 718 585 q 693 442 703 463 q 678 364 678 408 q 664 294 678 318 q 644 221 651 274 q 629 153 639 167 q 614 75 619 138 q 597 -10 610 13 q 581 -89 585 -32 q 574 -148 578 -137 q 556 -158 571 -158 q 492 -86 518 -157 q 403 100 421 100 q 358 43 394 100 q 327 -6 343 17 q 301 -45 311 -28 q 276 -99 290 -62 q 248 -160 257 -147 q 224 -172 239 -172 q 199 -135 199 -172 q 192 -99 199 -119 q 167 -8 179 -57 q 140 106 154 42 q 119 201 126 171 q 99 382 106 264 q 85 536 93 499 q 75 788 75 585 q 81 922 75 904 q 94 942 85 942 q 110 919 103 942 q 121 738 115 892 q 135 536 129 569 q 149 381 139 513 q 167 219 158 250 q 197 75 188 132 q 217 1 203 47 q 236 -50 231 -44 q 242 -44 238 -53 q 244 -39 243 -42 q 271 4 250 -21 q 336 100 292 31 q 414 188 392 188 q 419 186 418 188 q 457 124 426 183 q 506 15 488 64 q 526 -22 518 -19 l 528 -22 q 553 15 540 -22 q 565 88 565 51 q 579 163 565 138 q 600 246 593 189 q 617 313 604 297 q 628 372 628 325 q 643 449 628 414 q 663 536 658 481 q 678 619 668 599 q 692 707 692 647 q 710 797 692 768 q 726 876 725 822 q 735 932 726 926 q 742 951 742 936 z "},"X":{"ha":846,"x_min":78,"x_max":769,"o":"m 85 883 q 78 924 78 899 q 89 956 78 956 q 110 931 99 956 q 168 854 122 901 q 289 703 264 753 q 322 653 303 672 q 417 497 350 625 q 506 358 488 358 l 507 358 q 549 413 519 361 q 599 494 557 428 q 650 579 642 560 q 672 621 660 600 q 713 794 713 697 q 717 888 713 844 q 733 942 722 942 q 752 924 747 942 q 760 842 757 906 q 761 794 761 825 q 711 586 761 686 q 651 481 688 538 q 603 404 614 424 q 553 328 576 353 q 529 289 529 300 q 592 174 529 261 q 642 89 617 138 q 686 11 667 40 q 769 -132 769 -115 q 754 -147 769 -143 q 751 -148 753 -147 q 747 -149 749 -149 q 692 -94 725 -149 q 644 -21 676 -67 q 593 68 614 26 q 542 151 568 119 q 503 214 517 182 q 488 238 492 238 q 390 128 481 238 q 261 -83 322 42 q 206 -181 239 -128 q 172 -208 189 -208 q 140 -158 150 -208 q 135 -121 135 -128 q 157 -96 135 -96 q 169 -97 165 -96 l 196 -101 l 219 -54 q 309 104 274 51 q 421 246 344 157 q 457 303 457 288 q 456 314 457 310 q 431 368 450 342 q 420 383 426 374 q 411 396 414 392 q 408 401 408 400 q 354 507 408 411 q 285 618 300 603 q 250 667 261 644 q 128 824 222 718 q 85 883 96 858 z "},"Y":{"ha":761,"x_min":78,"x_max":683,"o":"m 79 954 q 92 963 88 963 q 128 923 100 963 q 186 829 157 883 q 230 752 200 804 q 274 675 260 700 q 307 603 288 650 q 342 508 326 557 q 381 392 371 417 q 406 321 400 342 q 414 313 410 307 q 424 336 415 317 q 460 430 442 375 q 479 496 479 485 q 501 575 479 511 q 513 609 507 590 q 521 640 518 628 q 525 656 524 653 q 564 756 531 681 q 619 869 597 832 q 668 926 651 925 q 681 925 679 928 q 681 908 683 922 q 658 850 675 885 q 633 790 656 842 q 594 694 611 738 q 574 632 578 651 q 563 599 568 604 q 542 545 556 590 q 528 486 528 500 q 495 377 528 468 q 447 263 463 286 q 422 206 442 254 q 394 149 403 158 q 363 97 383 135 q 331 44 342 60 q 303 -6 319 29 q 275 -56 286 -42 q 243 -106 264 -68 q 175 -178 204 -178 l 172 -178 q 156 -154 156 -175 q 167 -126 156 -140 q 199 -78 174 -118 q 231 -31 224 -39 q 268 35 239 -21 q 304 100 297 90 q 382 240 354 174 q 400 292 400 288 q 383 301 400 300 q 356 321 364 304 q 314 424 319 389 q 266 570 303 482 q 186 728 229 658 q 78 950 78 910 l 78 951 q 79 954 79 953 z "},"Z":{"ha":1076,"x_min":78,"x_max":1000,"o":"m 885 968 q 943 976 910 976 l 956 976 q 992 960 981 976 q 1000 936 1000 947 q 994 901 1000 932 q 933 751 978 822 q 828 635 889 681 q 781 599 813 624 q 724 557 750 575 q 671 522 699 539 q 569 456 601 479 q 533 429 560 449 q 495 400 507 410 q 465 374 483 390 q 435 339 447 357 q 392 288 414 307 q 374 263 374 269 q 355 227 371 254 q 319 169 339 200 q 297 135 300 139 q 254 78 286 117 q 215 29 222 39 q 190 -3 208 21 q 164 -36 171 -26 q 135 -82 135 -75 q 399 -87 135 -87 q 711 -76 667 -87 q 786 -52 754 -67 q 818 -29 818 -37 q 831 -7 818 -18 q 858 4 844 4 q 879 -11 879 4 q 860 -67 879 -25 q 819 -97 854 -81 q 744 -121 783 -112 q 272 -136 681 -136 q 96 -131 111 -136 q 81 -119 85 -125 q 78 -97 78 -114 q 119 -7 78 -68 q 225 121 175 71 q 247 153 247 143 q 268 188 247 161 q 317 265 290 217 q 364 335 349 322 q 402 383 374 343 q 446 431 431 422 q 519 484 463 442 q 596 539 575 526 q 675 588 644 568 q 717 615 706 607 q 757 646 728 622 q 804 683 786 669 q 869 751 833 706 q 921 833 904 796 q 944 918 944 885 q 940 928 944 928 q 881 918 932 928 q 556 906 831 907 l 476 906 q 276 910 281 906 q 269 918 269 914 q 304 940 269 928 q 600 956 332 950 q 885 968 861 960 z "},"a":{"ha":774,"x_min":75,"x_max":703,"o":"m 554 217 q 456 238 511 238 q 286 185 367 238 q 254 167 258 167 q 215 141 247 167 q 158 92 182 115 q 129 57 133 67 q 125 13 125 47 q 150 -58 125 -43 q 275 -74 175 -74 q 308 -73 285 -74 q 344 -72 331 -72 q 501 -62 467 -69 q 575 -26 535 -56 q 631 7 593 -14 l 653 19 l 653 92 q 646 169 653 151 q 613 193 639 186 q 554 217 590 199 m 336 676 q 504 688 363 688 l 647 688 l 660 658 q 696 514 665 646 q 703 178 703 486 q 699 -97 703 -42 q 679 -151 696 -151 q 668 -149 676 -151 q 655 -137 657 -144 q 653 -99 653 -129 q 647 -50 653 -54 l 646 -50 q 603 -72 632 -50 q 515 -112 556 -106 q 325 -119 474 -119 l 149 -119 l 119 -100 q 84 -58 93 -82 q 75 18 75 -35 q 83 81 75 63 q 129 140 92 100 q 223 208 153 165 q 343 269 293 250 q 454 286 383 286 l 471 286 q 541 278 517 286 q 613 238 565 269 q 647 219 643 217 q 653 353 653 224 q 639 546 653 482 q 634 568 638 554 q 630 587 631 582 q 626 601 629 592 q 622 614 624 611 q 617 623 619 617 q 610 630 614 629 q 601 634 606 631 q 588 638 596 638 q 572 638 581 638 q 553 639 564 639 q 522 638 546 639 q 482 638 499 638 q 375 633 397 635 q 342 621 353 631 q 297 593 331 611 q 229 528 269 578 q 178 479 189 479 q 172 504 169 479 q 207 580 175 538 q 276 640 239 622 q 308 660 304 656 q 336 676 314 667 z "},"b":{"ha":779,"x_min":69,"x_max":704,"o":"m 610 264 q 550 286 578 286 l 542 286 q 427 256 501 286 q 294 186 353 226 q 210 110 257 161 q 163 43 163 58 q 138 1 163 36 q 113 -62 113 -35 q 119 -98 113 -89 q 154 -122 125 -107 q 218 -136 181 -136 q 278 -135 251 -136 l 369 -132 l 467 -85 q 617 16 579 -31 q 656 147 654 63 q 647 224 656 204 q 610 264 639 244 m 74 978 q 82 985 78 985 q 101 950 89 985 q 113 503 113 917 q 119 89 113 89 q 143 111 126 89 q 203 176 164 139 q 265 226 243 213 q 460 321 356 282 q 550 336 501 336 q 599 332 585 336 q 642 307 613 328 q 690 258 683 276 q 703 163 697 240 q 704 118 704 144 q 692 47 704 78 q 492 -129 650 -64 q 449 -149 478 -135 q 411 -167 421 -164 q 376 -176 401 -169 q 322 -185 351 -183 q 249 -186 293 -186 q 174 -183 192 -186 q 119 -161 156 -179 q 71 -128 71 -136 q 69 199 69 -62 q 74 978 69 965 z "},"c":{"ha":693,"x_min":75,"x_max":617,"o":"m 178 647 l 201 674 l 264 674 q 475 601 401 674 q 506 556 506 571 q 496 547 506 547 q 451 564 485 547 q 347 612 372 603 q 281 624 321 621 q 249 625 267 625 q 213 607 229 625 q 194 574 197 590 q 165 489 194 557 q 133 378 140 429 q 125 221 125 326 l 125 190 q 142 88 125 131 q 235 -54 185 -26 q 280 -70 260 -68 q 389 -72 300 -72 l 442 -72 q 525 -62 514 -72 q 540 -43 540 -53 q 563 -10 544 -31 q 594 10 582 10 l 597 10 q 617 -11 617 7 q 601 -46 617 -26 q 583 -74 583 -69 q 560 -103 583 -79 l 538 -122 l 389 -122 q 233 -115 240 -122 q 194 -92 231 -112 q 147 -46 163 -75 q 125 -7 131 -12 q 96 64 119 -1 q 75 186 75 126 l 75 226 q 82 353 75 328 q 89 407 89 378 q 118 507 89 425 q 149 597 147 589 q 178 647 153 619 z "},"d":{"ha":836,"x_min":75,"x_max":767,"o":"m 524 500 q 400 513 486 513 q 319 509 338 513 q 268 490 300 506 q 185 425 219 464 q 135 351 144 379 q 125 253 125 322 q 160 69 125 114 q 175 39 175 51 q 264 -57 175 18 l 299 -87 l 394 -87 q 480 -85 460 -87 q 524 -69 500 -82 q 615 11 607 -28 q 629 38 621 33 q 678 86 639 44 l 717 131 l 717 199 q 707 265 717 265 q 696 271 696 265 q 667 401 690 368 q 623 449 651 424 q 583 476 594 475 q 565 483 572 476 q 524 500 560 488 m 679 942 q 710 931 689 957 q 752 778 742 889 q 765 318 763 668 q 766 208 765 274 q 767 119 767 142 q 756 -85 767 -67 q 744 -133 747 -100 q 728 -169 743 -165 q 704 -169 711 -174 q 699 -137 699 -165 q 710 -64 699 -81 q 715 -21 715 -57 l 715 1 l 714 57 l 683 18 q 657 -26 657 -15 q 565 -106 657 -49 q 502 -131 535 -125 q 385 -136 469 -136 l 274 -136 l 210 -78 q 132 9 157 -29 q 89 113 107 47 q 75 244 75 163 q 90 374 75 331 q 156 466 106 414 q 249 538 206 518 q 299 554 278 551 q 392 560 321 557 q 422 560 404 560 q 446 561 440 561 q 561 539 493 561 q 627 513 610 524 q 675 471 644 503 l 719 424 l 715 589 q 679 921 708 831 q 679 942 675 935 z "},"e":{"ha":707,"x_min":75,"x_max":632,"o":"m 411 664 q 353 674 396 674 l 339 674 q 213 642 232 671 q 185 547 201 626 q 153 417 172 493 q 138 340 138 356 q 144 328 138 328 l 146 328 l 269 333 q 428 351 371 336 q 539 404 486 367 q 561 451 561 419 q 572 494 561 478 q 582 539 582 506 q 576 576 582 561 q 550 617 568 597 q 526 636 538 632 q 476 646 514 640 q 411 664 428 653 m 247 715 q 331 724 281 724 q 435 710 397 724 q 494 696 467 696 q 618 600 575 696 q 632 529 632 569 q 621 479 632 494 q 611 449 611 467 q 563 358 610 389 q 521 336 528 336 q 465 313 515 336 q 410 293 431 296 q 318 288 390 290 l 276 288 q 179 292 204 288 q 151 294 157 294 q 126 280 132 294 q 121 217 121 265 q 161 75 121 97 q 201 49 192 56 q 229 32 221 32 q 267 4 236 32 q 371 -53 325 -53 q 426 -68 403 -53 q 456 -79 443 -79 q 483 -74 467 -79 q 539 -42 511 -67 q 572 4 567 -18 q 588 63 583 51 q 601 75 593 75 q 606 74 603 75 q 610 74 608 74 q 631 46 631 72 q 621 -4 631 26 q 586 -66 611 -35 q 533 -112 561 -97 q 454 -126 506 -126 q 399 -114 406 -126 q 356 -101 392 -101 q 246 -49 306 -101 q 149 22 200 -7 q 90 82 106 46 q 75 197 75 118 l 75 211 q 89 353 75 268 q 119 488 103 439 q 142 581 129 513 q 176 677 156 651 q 247 715 196 703 z "},"f":{"ha":813,"x_min":81,"x_max":733,"o":"m 526 1017 q 565 1024 543 1024 q 624 1010 604 1024 q 657 996 635 1003 q 703 964 672 992 q 733 926 733 936 q 717 918 733 918 q 669 935 690 918 q 639 949 651 949 q 606 960 628 949 q 571 969 588 969 q 517 946 549 969 q 481 921 486 921 q 429 869 468 921 q 356 757 390 818 q 290 613 303 664 q 276 458 276 563 q 289 350 276 350 q 308 360 297 350 q 344 371 325 371 q 417 382 372 371 q 469 390 447 390 q 478 389 476 390 q 489 364 489 385 q 482 346 489 350 q 368 322 463 336 q 321 308 340 318 q 292 300 308 300 q 285 299 286 300 q 281 292 283 299 q 278 270 279 285 q 278 229 278 256 l 278 144 q 297 -115 278 -104 q 304 -137 307 -122 q 281 -158 300 -158 q 250 -142 263 -158 q 226 154 228 -115 q 221 296 226 294 q 215 297 219 297 q 178 289 200 297 q 124 281 150 281 q 81 297 81 281 q 114 318 81 308 q 211 350 163 332 q 224 371 222 354 q 229 478 226 388 q 243 639 232 589 q 294 756 254 689 q 325 808 304 774 q 350 850 346 842 q 402 920 365 878 q 447 963 439 963 q 479 985 454 963 q 526 1017 503 1007 z "},"g":{"ha":668,"x_min":76,"x_max":592,"o":"m 379 -18 q 390 33 390 15 q 389 40 390 39 l 388 40 q 336 -12 378 40 q 285 -87 294 -64 q 264 -132 272 -122 q 253 -182 253 -147 q 258 -200 253 -200 q 293 -179 268 -200 q 379 -18 339 -144 m 436 661 q 401 675 428 675 q 250 623 343 675 q 136 521 157 571 q 126 424 126 500 q 132 350 126 372 q 141 310 135 340 q 155 257 147 281 q 171 225 163 233 q 198 211 182 214 q 285 208 214 208 q 397 213 386 208 q 413 240 404 215 q 429 267 421 264 q 441 298 439 269 q 443 458 443 326 q 436 661 443 647 m 322 710 q 403 724 368 724 q 485 681 471 724 q 493 443 493 658 l 493 229 l 531 256 q 576 276 561 276 q 592 256 592 276 q 554 210 592 239 q 474 138 488 160 q 440 25 460 115 q 382 -147 418 -72 q 352 -199 363 -187 q 310 -226 342 -210 q 231 -249 265 -249 q 194 -217 194 -249 q 203 -154 194 -192 q 221 -104 213 -117 q 242 -60 231 -90 q 329 60 251 -33 q 408 156 408 154 q 283 160 408 160 l 158 160 l 136 183 q 110 225 118 201 q 86 332 103 249 q 76 439 76 376 q 90 543 76 515 q 178 638 113 590 q 322 710 244 685 z "},"h":{"ha":710,"x_min":75,"x_max":636,"o":"m 154 75 q 156 64 154 64 q 157 83 160 67 q 154 75 154 79 m 119 940 q 133 947 125 950 q 156 878 151 942 q 160 517 160 815 q 165 124 160 124 q 188 166 172 124 q 208 247 203 208 q 249 375 224 335 q 329 439 275 415 q 426 463 385 463 q 458 460 436 463 q 512 433 489 454 q 561 364 535 411 q 603 294 588 315 q 636 17 636 244 q 633 -125 636 -93 q 615 -157 629 -157 q 606 -156 610 -157 q 593 -128 596 -151 q 588 14 590 -106 q 579 208 585 174 q 549 282 574 239 q 524 325 540 296 q 504 361 508 354 q 428 414 476 414 q 363 399 401 414 q 290 344 310 378 q 251 208 269 310 q 230 132 243 171 q 206 49 217 93 q 171 -67 186 -33 q 138 -149 153 -106 q 101 -196 122 -196 q 86 -192 94 -196 q 75 -111 75 -185 q 90 -8 75 -36 q 104 75 101 14 q 110 476 107 136 q 119 940 115 935 z "},"i":{"ha":299,"x_min":76,"x_max":225,"o":"m 161 457 q 174 469 167 469 q 192 443 188 469 q 197 167 197 413 q 195 -41 197 1 q 186 -89 193 -83 q 163 -92 174 -96 q 151 19 151 -87 q 153 178 151 108 q 161 457 156 447 m 153 638 q 146 665 156 663 q 139 660 140 667 q 138 635 138 653 q 143 607 138 607 q 153 638 149 607 m 103 714 q 131 728 115 728 q 176 710 149 728 q 225 654 225 679 q 224 643 225 647 q 201 596 218 615 q 158 572 183 576 q 117 553 129 567 q 99 540 107 540 q 76 581 76 540 q 81 608 76 594 q 88 667 88 633 q 103 714 88 697 z "},"j":{"ha":553,"x_min":78,"x_max":479,"o":"m 367 938 q 376 954 374 953 q 386 947 378 956 q 404 831 397 936 q 426 629 414 647 q 440 565 435 617 q 453 507 446 514 q 476 175 471 486 q 479 26 479 36 q 467 -64 479 -33 q 451 -126 451 -97 q 431 -198 451 -156 q 392 -249 410 -240 q 297 -257 375 -257 q 176 -235 214 -256 q 131 -165 139 -215 q 115 -129 126 -140 q 106 -76 106 -121 q 92 -6 106 -32 q 78 46 78 21 q 101 81 78 81 l 107 81 q 128 54 122 79 q 144 8 133 29 q 156 -56 156 -11 q 165 -111 156 -100 q 176 -137 176 -128 q 189 -175 176 -156 q 217 -200 201 -194 q 276 -206 229 -206 l 303 -206 l 369 -204 l 386 -175 q 401 -112 401 -149 q 417 -50 401 -81 q 429 43 429 -26 q 428 172 429 114 q 406 486 422 461 q 392 550 397 499 q 379 608 386 601 q 357 825 357 633 q 367 938 357 914 m 339 1068 q 342 1081 339 1072 q 369 1089 344 1089 l 386 1089 q 415 1086 408 1088 q 426 1081 422 1085 q 429 1067 429 1076 q 396 1043 429 1043 q 378 1044 385 1043 q 339 1068 339 1049 z "},"k":{"ha":565,"x_min":71,"x_max":488,"o":"m 113 929 q 133 944 125 944 q 142 924 142 944 q 140 903 142 911 q 129 835 138 881 q 122 532 122 800 q 128 315 122 319 l 129 315 q 167 349 138 315 q 206 403 196 383 q 299 556 228 450 q 389 672 371 661 q 421 683 407 683 q 431 676 431 683 q 392 606 431 669 q 326 503 354 542 q 264 400 299 463 q 214 324 240 353 q 150 229 178 283 q 144 215 144 218 q 161 192 144 208 q 188 171 179 171 q 278 97 197 171 q 364 11 360 24 q 408 -29 367 1 q 469 -67 450 -60 q 488 -96 488 -75 q 483 -113 488 -110 q 460 -117 479 -117 q 427 -108 442 -117 q 376 -71 413 -100 q 317 -12 319 -24 q 186 106 311 3 q 150 132 174 121 q 135 139 139 138 q 130 138 132 140 q 126 128 128 136 q 118 19 124 119 q 108 -89 113 -81 q 85 -103 101 -103 q 72 -94 75 -103 l 72 -89 q 72 -74 72 -83 q 72 -54 72 -65 q 71 -26 71 -43 q 71 8 71 -10 q 74 382 71 82 q 83 830 78 758 q 113 929 88 901 z "},"l":{"ha":214,"x_min":72,"x_max":142,"o":"m 104 917 q 121 943 110 943 q 138 913 135 943 q 142 764 140 883 q 133 610 142 628 q 121 235 125 589 l 117 -119 l 75 -119 l 72 217 l 72 397 q 85 621 72 567 q 100 790 100 688 q 104 917 100 894 z "},"m":{"ha":790,"x_min":76,"x_max":718,"o":"m 485 688 q 501 696 493 696 q 554 675 517 696 q 627 626 594 654 q 667 575 660 597 q 685 543 674 551 q 694 500 694 535 q 704 436 694 465 q 718 147 714 407 l 718 39 q 715 -128 718 -117 q 699 -144 708 -144 q 681 -126 688 -144 q 674 135 674 -108 q 664 407 674 383 q 650 469 656 429 q 536 629 633 579 q 511 636 522 636 q 443 589 478 636 l 419 557 l 425 218 q 429 -78 429 36 q 428 -142 429 -137 q 413 -164 424 -161 q 408 -165 411 -164 q 404 -165 406 -165 q 385 -144 390 -165 q 376 -58 379 -124 q 361 61 372 38 q 350 213 350 86 q 344 382 350 349 q 332 458 335 440 q 299 549 329 481 q 258 625 268 618 q 247 624 253 629 q 243 531 243 619 q 244 363 243 489 q 246 172 246 238 q 236 -68 246 -37 q 221 -132 226 -106 q 208 -165 218 -150 q 190 -179 199 -179 q 172 -153 175 -178 q 165 -11 168 -128 q 163 86 164 53 q 159 151 163 119 q 153 195 156 182 q 142 251 151 208 q 126 332 133 294 q 92 497 100 475 q 76 601 76 540 q 88 649 76 649 q 108 622 96 649 q 119 578 119 594 q 133 528 119 563 q 164 389 144 500 q 190 269 185 269 q 194 368 194 269 l 194 439 l 194 525 q 197 621 194 600 q 210 658 200 642 q 247 683 225 683 q 289 665 272 682 q 333 593 306 649 l 368 528 l 375 560 q 408 624 381 588 q 457 669 436 660 q 485 688 476 676 z "},"n":{"ha":788,"x_min":78,"x_max":711,"o":"m 121 606 q 104 597 117 606 q 86 589 92 589 q 78 610 78 589 q 97 646 78 629 q 139 663 117 663 q 175 640 163 663 q 210 589 192 611 q 247 526 238 556 q 258 431 256 497 q 264 332 261 342 q 272 325 268 318 l 282 346 q 296 433 296 378 q 306 506 296 492 q 317 539 314 515 q 337 616 317 567 q 379 689 357 665 q 407 713 397 708 q 438 718 417 718 q 507 692 468 718 q 557 658 532 674 q 626 539 576 644 l 650 490 l 654 336 q 669 143 661 174 q 695 24 681 106 q 711 -94 710 -58 l 711 -107 q 700 -140 711 -133 q 692 -143 694 -143 q 669 -126 679 -143 q 660 -86 660 -110 q 626 104 660 -39 q 604 329 607 186 q 595 475 601 447 q 549 585 589 503 q 497 636 539 603 q 442 669 456 669 q 394 617 422 669 q 365 529 365 565 q 354 490 365 507 q 344 422 347 479 q 333 341 344 382 q 319 279 322 300 q 308 231 314 236 q 290 147 300 221 q 275 -1 279 72 l 271 -92 l 229 -92 l 224 28 q 213 326 215 215 l 207 506 l 189 533 q 121 606 139 606 z "},"o":{"ha":686,"x_min":75,"x_max":614,"o":"m 460 621 q 399 633 436 633 q 247 581 304 633 q 190 519 203 540 q 172 464 176 499 q 155 376 168 438 q 139 296 142 314 q 129 265 135 271 q 122 119 122 261 l 122 -24 q 162 -53 136 -33 q 200 -82 188 -72 l 324 -82 q 483 -66 451 -81 q 535 17 515 -51 q 562 134 558 96 q 565 338 565 172 q 563 528 565 496 q 551 574 561 560 q 528 592 543 585 q 491 608 513 600 q 460 621 469 615 m 569 756 q 583 761 574 761 q 610 749 604 761 q 614 424 614 739 q 604 76 614 108 q 593 35 601 65 q 582 -4 585 4 q 556 -74 569 -53 q 513 -110 542 -94 q 463 -124 488 -122 q 338 -129 439 -126 q 291 -130 321 -129 q 250 -131 261 -131 q 183 -128 194 -131 q 128 -94 167 -124 q 82 -49 90 -64 q 75 33 75 -35 q 76 124 75 86 q 93 329 79 285 q 131 511 131 458 q 140 544 131 531 q 192 597 149 557 q 271 660 251 654 q 292 665 272 660 q 325 674 313 669 q 394 682 356 682 q 501 660 463 682 q 550 638 535 642 q 558 636 553 636 q 565 692 565 636 q 569 756 565 751 z "},"p":{"ha":640,"x_min":75,"x_max":564,"o":"m 358 622 q 271 639 328 639 q 236 635 249 639 q 178 628 226 631 l 136 628 l 140 594 q 144 365 144 568 l 144 169 l 185 174 q 274 190 201 175 q 385 206 346 206 q 472 224 443 206 q 510 258 504 242 q 517 328 517 274 l 517 343 q 513 417 517 400 q 485 482 508 433 q 358 622 432 588 m 254 686 q 278 689 265 689 q 390 665 340 689 q 451 615 411 654 q 529 508 496 572 l 563 442 l 564 350 l 564 315 q 553 235 564 258 q 507 186 543 211 q 467 165 482 169 q 392 157 451 161 q 264 140 303 149 q 182 124 228 131 l 144 121 l 144 -67 q 140 -267 144 -257 q 119 -278 136 -278 q 100 -267 104 -278 q 96 -67 96 -257 q 85 125 96 121 q 75 146 75 129 q 85 169 75 164 q 98 398 94 176 q 108 636 101 619 q 131 658 114 650 q 204 676 149 665 q 226 681 214 679 q 245 685 238 683 q 254 686 253 686 z "},"q":{"ha":889,"x_min":76,"x_max":819,"o":"m 551 626 q 471 647 494 647 l 468 647 q 336 589 419 644 q 271 560 300 565 q 188 498 231 553 q 128 369 146 443 q 119 319 119 336 q 125 283 119 304 q 158 219 135 242 q 229 181 181 196 q 292 167 264 169 q 406 164 321 164 l 531 164 l 572 185 q 653 247 624 211 q 719 357 683 282 q 760 475 760 443 q 750 514 760 496 q 729 543 735 543 q 700 563 722 543 q 646 592 683 578 q 602 608 636 594 q 551 626 568 621 m 392 678 q 461 696 433 696 q 469 695 464 696 q 479 694 475 694 q 565 676 508 692 q 650 643 621 660 q 679 635 663 635 q 725 606 690 635 q 764 578 758 578 q 771 619 771 578 q 776 672 771 660 q 796 683 781 683 q 815 673 810 683 q 819 629 819 663 q 817 560 819 621 q 807 128 813 478 q 801 -169 804 -108 q 785 -231 797 -231 q 772 -225 781 -231 q 762 -181 764 -219 q 757 46 760 -143 l 753 308 l 738 283 q 671 194 699 221 q 593 140 643 167 l 542 114 l 392 117 q 253 122 281 119 q 192 139 226 125 q 76 313 76 182 q 126 490 76 404 q 185 574 160 551 q 254 606 211 596 q 318 636 293 615 q 392 678 342 656 z "},"r":{"ha":492,"x_min":71,"x_max":415,"o":"m 232 700 q 272 704 247 704 q 332 696 317 704 q 399 567 361 681 q 415 500 415 513 q 401 483 415 488 q 393 482 399 482 q 353 542 367 482 q 326 617 342 586 q 306 645 314 639 q 281 654 299 651 q 275 655 278 654 q 271 656 272 656 q 252 649 260 656 q 226 618 244 642 q 185 529 193 575 q 178 342 178 483 q 171 161 178 182 q 157 101 167 146 q 128 -64 142 21 q 114 -128 115 -126 q 90 -144 107 -144 q 75 -136 79 -144 q 71 156 71 -131 q 76 654 71 601 q 93 683 82 683 q 110 643 107 683 q 114 422 114 603 q 121 192 117 192 q 128 344 128 192 q 142 557 128 506 q 184 646 153 596 q 232 700 215 696 z "},"s":{"ha":576,"x_min":78,"x_max":503,"o":"m 296 668 q 332 674 318 674 q 446 635 407 674 q 467 603 467 614 q 454 594 467 594 q 422 603 443 594 q 333 618 385 618 q 311 614 315 618 q 299 550 307 607 q 293 506 293 508 q 310 457 293 490 q 410 353 346 389 q 467 302 440 335 q 500 244 494 269 q 503 192 503 228 q 492 -12 503 63 q 428 -125 482 -65 q 376 -144 408 -144 q 244 -103 328 -144 q 159 -20 215 -89 q 85 92 103 49 q 78 122 78 106 q 96 150 78 150 q 126 122 113 150 q 188 24 143 90 q 233 -33 218 -18 q 293 -70 251 -51 q 363 -93 335 -89 q 376 -94 368 -94 q 393 -88 386 -94 q 414 -62 400 -82 q 442 1 436 -32 q 451 136 449 33 l 454 239 l 433 265 q 382 310 411 293 q 314 365 347 328 q 263 438 281 401 q 244 499 244 475 q 246 529 244 517 q 261 619 253 589 q 275 656 269 647 q 296 668 281 664 z "},"t":{"ha":628,"x_min":78,"x_max":547,"o":"m 242 931 q 256 950 246 950 q 269 928 265 950 q 290 743 281 874 q 308 731 292 733 q 411 725 325 728 q 524 718 501 722 q 547 701 547 714 q 520 688 547 692 q 399 679 493 683 l 289 674 l 289 394 q 294 119 289 179 q 321 -18 299 60 q 358 -56 324 -31 q 393 -99 393 -81 q 375 -117 393 -117 q 314 -89 353 -117 q 282 -59 289 -69 q 268 -18 275 -49 q 259 21 265 -7 q 251 55 253 49 q 247 79 250 61 q 243 108 243 97 q 241 136 243 118 q 239 177 239 154 q 239 226 239 200 q 239 294 239 251 l 239 389 q 238 623 239 579 q 231 667 236 667 l 229 667 l 228 665 q 188 653 221 663 q 144 636 154 643 q 113 626 131 626 q 78 656 78 626 q 114 678 78 660 q 160 697 150 697 q 201 713 164 697 l 239 729 l 238 819 l 238 857 q 242 931 238 918 z "},"u":{"ha":586,"x_min":71,"x_max":511,"o":"m 381 693 q 408 703 386 704 q 424 699 419 701 q 432 691 429 697 q 438 669 435 685 q 449 518 444 628 q 465 346 457 390 q 476 181 476 300 q 506 -51 479 -10 q 511 -68 511 -58 q 486 -89 511 -89 q 449 -53 449 -89 q 443 -26 449 -33 q 439 -24 440 -24 q 365 -103 428 -24 q 343 -117 356 -115 q 272 -119 331 -119 q 166 -101 188 -119 q 115 17 144 -82 l 96 83 l 92 361 q 79 649 88 640 q 76 668 71 657 q 86 672 81 672 q 131 643 108 672 q 140 361 135 632 q 147 122 143 171 q 161 38 150 74 q 201 -56 185 -40 q 278 -74 218 -72 l 296 -74 q 327 -65 317 -74 q 372 -14 338 -56 q 390 47 385 0 q 397 232 394 94 q 399 321 399 267 q 393 414 399 397 q 383 515 388 431 q 378 654 378 599 q 381 693 378 685 z "},"v":{"ha":744,"x_min":76,"x_max":667,"o":"m 81 668 q 88 674 83 674 q 110 646 100 674 q 136 594 114 635 q 163 544 158 554 q 196 451 167 529 q 240 297 224 382 q 263 207 256 214 q 274 126 271 196 q 286 33 276 53 q 296 -7 296 11 q 303 -25 296 -25 q 310 -14 310 -25 q 329 38 310 -1 q 358 111 353 85 q 382 178 371 157 q 436 304 386 188 q 647 660 588 660 q 656 658 653 660 q 667 638 667 654 q 650 603 667 617 q 598 527 635 590 q 531 396 561 464 q 407 101 407 119 q 383 36 407 90 q 349 -62 369 4 q 297 -131 329 -131 q 274 -117 282 -131 q 257 -61 267 -103 q 235 15 243 -4 q 225 93 225 40 q 189 318 225 178 q 99 561 171 388 q 76 647 76 611 q 81 668 76 661 z "},"w":{"ha":813,"x_min":74,"x_max":738,"o":"m 182 -46 q 192 -87 182 -69 q 204 -122 203 -106 q 210 -161 204 -147 q 215 -169 211 -169 q 239 -132 222 -169 q 253 -110 249 -110 q 263 -93 258 -110 q 292 -43 265 -83 q 350 59 318 -3 q 389 146 382 121 q 400 171 394 167 q 425 175 406 175 q 450 169 444 175 q 471 125 456 163 q 492 68 492 75 q 538 -18 492 60 q 601 -114 585 -96 q 633 -137 622 -137 q 640 -131 638 -137 q 644 -90 642 -125 q 646 1 646 -56 q 646 176 646 58 q 656 528 646 492 q 663 558 658 536 q 671 599 667 581 q 681 635 675 617 q 697 665 688 654 q 715 676 706 676 q 738 657 738 676 q 729 618 738 644 q 699 470 703 528 q 694 149 694 413 q 690 -196 694 -186 q 669 -207 686 -207 q 560 -149 622 -207 q 533 -114 533 -125 q 511 -71 533 -106 q 446 50 457 15 q 428 88 432 88 q 389 26 422 88 q 347 -46 374 -3 q 307 -117 321 -89 q 251 -212 271 -187 q 208 -236 231 -236 q 161 -161 172 -236 q 144 -112 156 -124 q 133 -62 133 -103 q 124 -6 133 -25 q 110 56 118 6 q 96 118 101 107 q 74 451 76 154 q 79 671 74 656 q 96 690 86 690 q 111 675 104 690 q 118 461 118 658 q 126 240 121 260 q 133 185 133 217 q 144 136 135 164 q 154 83 154 108 q 168 18 154 60 q 182 -46 182 -24 z "},"x":{"ha":769,"x_min":78,"x_max":693,"o":"m 81 686 q 93 697 85 697 q 113 678 104 697 q 129 642 113 676 q 160 577 146 608 q 174 540 174 546 q 217 475 174 536 q 269 389 258 415 q 301 326 275 371 q 347 257 328 281 l 360 240 l 386 278 q 422 337 403 303 q 458 396 442 371 q 485 445 468 411 q 515 494 503 479 q 596 624 525 504 q 635 672 613 653 q 678 690 658 690 q 693 682 693 690 q 674 649 693 675 q 640 596 660 631 q 596 519 626 568 q 554 456 565 469 q 526 411 543 443 q 501 367 510 379 q 418 233 447 276 q 392 183 392 194 q 411 147 392 174 q 543 -100 442 103 q 624 -247 610 -236 q 638 -267 638 -261 q 606 -278 638 -278 l 575 -278 l 508 -143 q 356 128 374 124 l 354 128 q 315 79 343 128 q 245 -23 290 35 q 176 -100 200 -81 q 149 -112 160 -112 q 121 -79 128 -112 q 119 -61 119 -72 q 146 -39 119 -39 q 200 4 164 -39 q 264 96 233 44 q 307 165 300 156 q 321 190 321 183 q 279 265 321 199 q 228 357 235 339 q 176 442 219 382 q 106 569 133 504 q 78 669 78 633 q 81 686 78 678 z "},"y":{"ha":756,"x_min":76,"x_max":679,"o":"m 643 657 q 672 681 661 681 q 679 667 679 681 q 656 585 679 643 q 635 511 635 531 q 601 435 635 488 q 519 253 519 300 l 528 194 q 528 169 531 174 q 514 164 525 164 q 489 172 497 164 q 474 161 481 181 q 365 -12 458 126 q 335 -39 349 -39 q 306 -50 321 -39 q 183 -87 253 -87 q 132 -74 147 -87 q 115 -51 115 -60 q 103 -15 115 -46 q 76 71 76 42 q 79 86 76 82 q 99 101 88 101 q 129 63 117 101 q 151 6 139 35 q 165 -32 165 -22 q 181 -39 165 -39 q 271 -12 215 -39 q 318 18 304 4 q 365 83 332 32 q 433 201 414 154 l 454 249 l 439 282 q 367 432 379 414 q 254 646 260 593 q 255 668 253 664 q 265 672 257 672 q 286 658 279 672 q 334 583 286 657 q 382 504 382 510 q 407 461 382 501 q 451 376 431 424 q 478 328 474 328 q 507 369 483 328 q 578 496 564 482 q 586 524 586 504 q 605 589 586 544 q 643 657 624 633 z "},"z":{"ha":860,"x_min":78,"x_max":783,"o":"m 529 686 q 676 701 560 701 q 771 693 763 701 q 783 643 783 681 q 779 608 783 625 q 680 480 768 568 q 550 381 592 392 q 505 356 529 374 q 404 274 481 339 q 257 110 294 183 q 189 10 239 72 q 172 -19 172 -11 q 181 -26 172 -26 q 225 -14 193 -26 q 285 1 254 -1 q 457 3 317 3 q 618 5 583 3 q 661 15 653 7 q 674 35 674 28 q 694 75 674 44 q 732 108 715 108 q 756 86 756 108 q 746 60 756 76 q 714 7 718 15 q 679 -37 694 -31 q 469 -46 664 -46 q 301 -48 336 -46 q 244 -60 265 -50 q 142 -75 210 -75 q 81 -62 85 -75 q 78 -50 78 -57 q 122 8 78 -36 q 178 81 164 51 q 197 115 188 99 q 222 152 207 132 q 246 189 236 172 q 343 289 271 229 q 449 378 432 363 q 518 422 481 407 q 693 568 594 453 q 729 632 729 611 q 726 644 729 636 q 664 656 722 656 q 556 642 593 656 q 490 628 518 628 q 432 613 465 628 q 335 587 403 600 q 232 574 267 574 q 214 576 215 574 q 229 600 210 583 q 322 633 247 618 q 413 660 392 647 q 472 674 424 667 q 529 686 521 682 z "},"":{"ha":347,"x_min":0,"x_max":0,"o":""}}}
